<svg width="790" height="497" viewBox="0 0 790 497" fill="none" xmlns="http://www.w3.org/2000/svg">
<path fill-rule="evenodd" clip-rule="evenodd" d="M789.244 380.006C789.244 444.582 736.894 496.931 672.319 496.931C621.542 496.931 578.326 464.565 562.174 419.339H620.618C632.485 434.913 651.228 444.964 672.319 444.964C708.195 444.964 737.277 415.881 737.277 380.006C737.277 375.557 736.83 371.212 735.978 367.014H788.53C789.001 371.28 789.244 375.615 789.244 380.006ZM612.923 406.347C609.348 398.296 607.361 389.383 607.361 380.006C607.361 344.13 636.444 315.048 672.319 315.048C698.956 315.048 721.849 331.081 731.872 354.023H786.346C774.531 301.952 727.964 263.081 672.319 263.081C607.743 263.081 555.394 315.43 555.394 380.006C555.394 389.064 556.423 397.881 558.373 406.347H612.923Z" fill="#BE2134"/>
<rect x="594.369" y="367.015" width="155.9" height="38.975" fill="#BE2134"/>
<path fill-rule="evenodd" clip-rule="evenodd" d="M786.346 142.908C788.242 134.552 789.244 125.855 789.244 116.925C789.244 52.3491 736.894 0 672.319 0C607.743 0 555.394 52.3491 555.394 116.925C555.394 181.501 607.743 233.85 672.319 233.85C723.229 233.85 766.539 201.313 782.59 155.9H724.291C712.44 171.677 693.571 181.883 672.319 181.883C645.682 181.883 622.79 165.85 612.766 142.909H672.319V142.908H786.346ZM672.319 51.9665C640.893 51.9665 614.679 74.2832 608.66 103.934H735.978C729.96 74.2832 703.746 51.9665 672.319 51.9665Z" fill="#BE2134"/>
<path fill-rule="evenodd" clip-rule="evenodd" d="M248.466 496.931C385.689 496.931 496.931 385.689 496.931 248.466C496.931 111.242 385.689 0 248.466 0C111.242 0 0 111.242 0 248.466C0 385.689 111.242 496.931 248.466 496.931ZM248.466 350.775C304.97 350.775 350.775 304.969 350.775 248.465C350.775 191.961 304.97 146.156 248.466 146.156C191.962 146.156 146.157 191.961 146.157 248.465C146.157 304.969 191.962 350.775 248.466 350.775Z" fill="#BE2134"/>
<path fill-rule="evenodd" clip-rule="evenodd" d="M248.466 496.931V496.754C383.343 491.79 491.79 383.343 496.753 248.466H496.931V496.931H248.466Z" fill="#BE2134"/>
</svg>
