<svg width="1170" height="1170" viewBox="0 0 1170 1170" fill="none" xmlns="http://www.w3.org/2000/svg">
<path d="M0 219.234C0 98.1546 98.1546 0 219.234 0H950.016C1071.1 0 1169.25 98.1546 1169.25 219.234V950.016C1169.25 1071.1 1071.1 1169.25 950.016 1169.25H219.234C98.1546 1169.25 0 1071.1 0 950.016V219.234Z" fill="#BE2134"/>
<path fill-rule="evenodd" clip-rule="evenodd" d="M979.246 716.165C979.246 780.741 926.897 833.09 862.321 833.09C811.545 833.09 768.329 800.724 752.177 755.498H810.621C822.488 771.072 841.231 781.123 862.322 781.123C898.198 781.123 927.28 752.041 927.28 716.165C927.28 711.716 926.833 707.371 925.981 703.173H978.533C979.004 707.439 979.246 711.774 979.246 716.165ZM802.926 742.506C799.351 734.455 797.364 725.542 797.364 716.165C797.364 680.29 826.447 651.207 862.322 651.207C888.959 651.207 911.851 667.24 921.875 690.182H976.349C964.534 638.112 917.967 599.24 862.321 599.24C797.746 599.24 745.396 651.589 745.396 716.165C745.396 725.223 746.426 734.04 748.376 742.506H802.926Z" fill="white"/>
<rect x="784.372" y="703.174" width="155.9" height="38.975" fill="white"/>
<path fill-rule="evenodd" clip-rule="evenodd" d="M976.349 479.067C978.245 470.711 979.246 462.014 979.246 453.084C979.246 388.508 926.897 336.159 862.321 336.159C797.746 336.159 745.396 388.508 745.396 453.084C745.396 517.66 797.746 570.009 862.321 570.009C913.231 570.009 956.542 537.472 972.593 492.059H914.294C902.442 507.837 883.574 518.042 862.322 518.042C835.685 518.042 812.793 502.01 802.769 479.068H862.322V479.067H976.349ZM862.322 388.126C830.896 388.126 804.681 410.442 798.663 440.093H925.981C919.963 410.442 893.748 388.126 862.322 388.126Z" fill="white"/>
<path fill-rule="evenodd" clip-rule="evenodd" d="M438.469 833.09C575.692 833.09 686.934 721.849 686.934 584.625C686.934 447.401 575.692 336.159 438.469 336.159C301.245 336.159 190.003 447.401 190.003 584.625C190.003 721.849 301.245 833.09 438.469 833.09ZM438.469 686.934C494.973 686.934 540.778 641.128 540.778 584.625C540.778 528.121 494.973 482.315 438.469 482.315C381.965 482.315 336.159 528.121 336.159 584.625C336.159 641.128 381.965 686.934 438.469 686.934Z" fill="white"/>
<path fill-rule="evenodd" clip-rule="evenodd" d="M438.469 833.091V832.913C573.346 827.949 681.793 719.502 686.756 584.625H686.934V833.091H438.469Z" fill="white"/>
</svg>
